<svg width="18" height="18" viewBox="0 0 18 18" fill="none" xmlns="http://www.w3.org/2000/svg">
<path fill-rule="evenodd" clip-rule="evenodd" d="M9.00081 0.467041C6.68327 0.467041 6.39243 0.477174 5.48219 0.518597C4.57374 0.560198 3.95364 0.704021 3.41106 0.915046C2.84981 1.133 2.37372 1.42456 1.8994 1.89906C1.42473 2.37337 1.13317 2.84947 0.914502 3.41054C0.702944 3.9533 0.558942 4.57357 0.518053 5.48167C0.477342 6.3919 0.466675 6.68293 0.466675 9.00046C0.466675 11.318 0.476986 11.608 0.518231 12.5182C0.560009 13.4266 0.703833 14.0467 0.914679 14.5893C1.13282 15.1506 1.42437 15.6267 1.89887 16.101C2.37301 16.5757 2.8491 16.8679 3.40999 17.0859C3.95293 17.2969 4.57321 17.4407 5.48148 17.4823C6.39171 17.5238 6.68238 17.5339 8.99974 17.5339C11.3175 17.5339 11.6074 17.5238 12.5176 17.4823C13.4261 17.4407 14.0469 17.2969 14.5898 17.0859C15.1509 16.8679 15.6263 16.5757 16.1004 16.101C16.5751 15.6267 16.8667 15.1506 17.0853 14.5895C17.2951 14.0467 17.4391 13.4265 17.4818 12.5184C17.5227 11.6081 17.5333 11.318 17.5333 9.00046C17.5333 6.68293 17.5227 6.39208 17.4818 5.48185C17.4391 4.57339 17.2951 3.9533 17.0853 3.41072C16.8667 2.84947 16.5751 2.37337 16.1004 1.89906C15.6258 1.42438 15.1511 1.13283 14.5893 0.915046C14.0453 0.704021 13.4249 0.560198 12.5164 0.518597C11.6062 0.477174 11.3164 0.467041 8.99814 0.467041H9.00081ZM8.23525 2.00481C8.46245 2.00446 8.71597 2.00481 9.00077 2.00481C11.2792 2.00481 11.5492 2.01299 12.449 2.05388C13.281 2.09192 13.7326 2.23095 14.0334 2.34775C14.4316 2.50242 14.7155 2.68731 15.014 2.98598C15.3127 3.28465 15.4976 3.56909 15.6526 3.96732C15.7694 4.26777 15.9086 4.71933 15.9464 5.55134C15.9873 6.4509 15.9962 6.72113 15.9962 8.99848C15.9962 11.2758 15.9873 11.5461 15.9464 12.4456C15.9084 13.2776 15.7694 13.7292 15.6526 14.0296C15.4979 14.4279 15.3127 14.7114 15.014 15.0099C14.7153 15.3086 14.4318 15.4935 14.0334 15.6482C13.7329 15.7655 13.281 15.9042 12.449 15.9422C11.5494 15.9831 11.2792 15.992 9.00077 15.992C6.72217 15.992 6.45212 15.9831 5.55256 15.9422C4.72055 15.9038 4.26899 15.7648 3.96801 15.648C3.56978 15.4933 3.28533 15.3084 2.98666 15.0097C2.68799 14.7111 2.5031 14.4273 2.34808 14.0289C2.23128 13.7285 2.09208 13.2769 2.05421 12.4449C2.01332 11.5454 2.00514 11.2751 2.00514 8.99635C2.00514 6.71757 2.01332 6.44877 2.05421 5.5492C2.09226 4.71719 2.23128 4.26563 2.34808 3.96483C2.50275 3.56661 2.68799 3.28216 2.98666 2.98349C3.28533 2.68482 3.56978 2.49993 3.96801 2.3449C4.26881 2.22757 4.72055 2.0889 5.55256 2.05068C6.33977 2.01512 6.64484 2.00446 8.23525 2.00268V2.00481ZM13.5558 3.42172C12.9905 3.42172 12.5318 3.87986 12.5318 4.44537C12.5318 5.01071 12.9905 5.46938 13.5558 5.46938C14.1212 5.46938 14.5799 5.01071 14.5799 4.44537C14.5799 3.88003 14.1212 3.42172 13.5558 3.42172ZM9.00082 4.61817C6.58071 4.61817 4.61855 6.58033 4.61855 9.00044C4.61855 11.4206 6.58071 13.3818 9.00082 13.3818C11.4209 13.3818 13.3824 11.4206 13.3824 9.00044C13.3824 6.58033 11.4209 4.61817 9.00082 4.61817ZM9.00079 6.15597C10.5717 6.15597 11.8453 7.4294 11.8453 9.00044C11.8453 10.5713 10.5717 11.8449 9.00079 11.8449C7.42975 11.8449 6.15632 10.5713 6.15632 9.00044C6.15632 7.4294 7.42975 6.15597 9.00079 6.15597Z" fill="white"/>
</svg>
