<svg width="24" height="24" viewBox="0 0 24 24" fill="none" xmlns="http://www.w3.org/2000/svg">
<path opacity="0.2" d="M8.67187 11.7005C9.44364 13.2943 10.7324 14.5797 12.3281 15.3474C12.4458 15.4031 12.576 15.4273 12.7059 15.4174C12.8358 15.4075 12.9608 15.364 13.0687 15.2911L15.4125 13.7255C15.516 13.6553 15.6357 13.6124 15.7603 13.601C15.8849 13.5895 16.0104 13.6098 16.125 13.6599L20.5125 15.5443C20.6625 15.6067 20.7877 15.7167 20.869 15.8573C20.9504 15.9979 20.9832 16.1613 20.9625 16.3224C20.8234 17.4078 20.2937 18.4053 19.4723 19.1283C18.6509 19.8513 17.5943 20.2503 16.5 20.2505C13.1185 20.2505 9.87548 18.9072 7.48439 16.5161C5.0933 14.125 3.75 10.882 3.75 7.50052C3.75025 6.40627 4.1492 5.3496 4.87221 4.52823C5.59522 3.70686 6.59274 3.17708 7.67812 3.03802C7.83922 3.01733 8.00266 3.05016 8.14326 3.13148C8.28386 3.21279 8.39384 3.33807 8.45625 3.48802L10.3406 7.88489C10.3896 7.99772 10.4101 8.12087 10.4003 8.24348C10.3905 8.3661 10.3507 8.48442 10.2844 8.58802L8.71875 10.9693C8.64905 11.077 8.60814 11.2008 8.59993 11.3288C8.59172 11.4568 8.61649 11.5848 8.67187 11.7005Z" fill="#009379"/>
<path d="M8.67187 11.7005C9.44364 13.2943 10.7324 14.5797 12.3281 15.3474C12.4458 15.4031 12.576 15.4273 12.7059 15.4174C12.8358 15.4075 12.9608 15.364 13.0687 15.2911L15.4125 13.7255C15.516 13.6553 15.6357 13.6124 15.7603 13.601C15.8849 13.5895 16.0104 13.6098 16.125 13.6599L20.5125 15.5443C20.6625 15.6067 20.7877 15.7167 20.869 15.8573C20.9504 15.9979 20.9832 16.1613 20.9625 16.3224C20.8234 17.4078 20.2937 18.4053 19.4723 19.1283C18.6509 19.8513 17.5943 20.2503 16.5 20.2505C13.1185 20.2505 9.87548 18.9072 7.48439 16.5161C5.0933 14.125 3.75 10.882 3.75 7.50052C3.75025 6.40627 4.1492 5.3496 4.87221 4.52823C5.59522 3.70686 6.59274 3.17708 7.67812 3.03802C7.83922 3.01733 8.00266 3.05016 8.14326 3.13148C8.28386 3.21279 8.39384 3.33807 8.45625 3.48802L10.3406 7.88489C10.3896 7.99772 10.4101 8.12087 10.4003 8.24348C10.3905 8.3661 10.3507 8.48442 10.2844 8.58802L8.71875 10.9693C8.64905 11.077 8.60814 11.2008 8.59993 11.3288C8.59172 11.4568 8.61649 11.5848 8.67187 11.7005Z" fill="white" stroke="#F29130" stroke-width="1.5" stroke-linecap="round" stroke-linejoin="round"/>
<path d="M14.9438 3.75049C16.216 4.0919 17.3759 4.76191 18.3073 5.69328C19.2387 6.62465 19.9087 7.7846 20.2501 9.05674" stroke="#F29130" stroke-width="1.5" stroke-linecap="round" stroke-linejoin="round"/>
<path d="M14.1655 6.64746C14.9306 6.85066 15.6284 7.25251 16.1882 7.81228C16.748 8.37205 17.1498 9.06985 17.353 9.83496" stroke="#F29130" stroke-width="1.5" stroke-linecap="round" stroke-linejoin="round"/>
</svg>
