<svg width="16" height="14" viewBox="0 0 16 14" fill="none" xmlns="http://www.w3.org/2000/svg">
<path fill-rule="evenodd" clip-rule="evenodd" d="M7.5208 4.00559L7.55438 4.55922L6.99479 4.49143C4.95791 4.23156 3.17843 3.35026 1.66756 1.87013L0.928908 1.13572L0.73865 1.67806C0.33575 2.88702 0.593158 4.16377 1.43253 5.02247C1.8802 5.49701 1.77948 5.56481 1.00725 5.28234C0.73865 5.19195 0.503625 5.12416 0.481242 5.15805C0.4029 5.23714 0.6715 6.26533 0.884142 6.67208C1.17513 7.23701 1.76828 7.79065 2.4174 8.11831L2.96579 8.37818L2.31668 8.38948C1.68994 8.38948 1.66756 8.40078 1.73471 8.63805C1.95854 9.37247 2.84268 10.1521 3.82755 10.491L4.52143 10.7283L3.91708 11.0899C3.02175 11.6096 1.96973 11.9034 0.917717 11.926C0.414092 11.9373 0 11.9825 0 12.0164C0 12.1293 1.36538 12.7621 2.15999 13.0106C4.54382 13.7451 7.37531 13.4287 9.50173 12.1745C11.0126 11.2819 12.5235 9.50805 13.2286 7.79065C13.6091 6.87546 13.9896 5.20325 13.9896 4.40104C13.9896 3.8813 14.0232 3.81351 14.6499 3.19208C15.0192 2.83052 15.3662 2.43507 15.4333 2.32208C15.5452 2.10741 15.534 2.10741 14.9633 2.29948C14.012 2.63844 13.8777 2.59325 14.3477 2.08481C14.6947 1.72325 15.1088 1.06793 15.1088 0.875848C15.1088 0.841952 14.9409 0.898445 14.7506 1.00013C14.5492 1.11312 14.1015 1.2826 13.7658 1.38429L13.1614 1.57637L12.613 1.20351C12.3108 1.00013 11.8856 0.774159 11.6617 0.706367C11.0909 0.548185 10.218 0.570783 9.70318 0.751562C8.30422 1.26 7.42008 2.57065 7.5208 4.00559Z" fill="white"/>
</svg>
