<svg width="20" height="20" viewBox="0 0 19 19" fill="none" xmlns="http://www.w3.org/2000/svg">
<path opacity="0.2" d="M10 12.5005C12.7614 12.5005 15 10.2619 15 7.50049C15 4.73906 12.7614 2.50049 10 2.50049C7.23858 2.50049 5 4.73906 5 7.50049C5 10.2619 7.23858 12.5005 10 12.5005Z" fill="#F29130"/>
<path d="M10 12.5005C12.7614 12.5005 15 10.2619 15 7.50049C15 4.73906 12.7614 2.50049 10 2.50049C7.23858 2.50049 5 4.73906 5 7.50049C5 10.2619 7.23858 12.5005 10 12.5005Z" stroke="#F29130" stroke-width="0.740741" stroke-miterlimit="10"/>
<path d="M2.42188 16.8755C3.18979 15.5451 4.2944 14.4403 5.62465 13.6722C6.9549 12.9041 8.46392 12.4998 10 12.4998C11.5361 12.4998 13.0451 12.9041 14.3753 13.6722C15.7056 14.4403 16.8102 15.5451 17.5781 16.8755" stroke="#F29130" stroke-width="0.740741" stroke-linecap="round" stroke-linejoin="round"/>
</svg>
