<svg width="852" height="490" viewBox="0 0 852 490" fill="none" xmlns="http://www.w3.org/2000/svg">
<g clip-path="url(#clip0_80_817)">
<path d="M184.605 434.951C209.076 434.951 228.914 415.094 228.914 390.6C228.914 366.106 209.076 346.25 184.605 346.25C160.134 346.25 140.296 366.106 140.296 390.6C140.296 415.094 160.134 434.951 184.605 434.951Z" fill="#F2F2F2"/>
<path d="M191.81 428.46C216.281 428.46 236.118 408.604 236.118 384.11C236.118 359.616 216.281 339.76 191.81 339.76C167.338 339.76 147.501 359.616 147.501 384.11C147.501 408.604 167.338 428.46 191.81 428.46Z" fill="#72D7E4"/>
<path d="M775.713 335.037H227.493V336.534H775.713V335.037Z" fill="#3F3D56"/>
<path d="M511.417 13.9633H316.833V9.94897H228.601V13.9633H33.2149C31.4864 13.9633 29.7749 14.304 28.1779 14.9661C26.581 15.6282 25.1301 16.5986 23.9078 17.822C22.6856 19.0454 21.7161 20.4977 21.0546 22.0961C20.3932 23.6945 20.0527 25.4077 20.0527 27.1378V293.833C20.0527 297.327 21.4394 300.678 23.9078 303.149C26.3762 305.62 29.7241 307.008 33.2149 307.008H511.417C514.908 307.008 518.256 305.62 520.724 303.149C523.193 300.678 524.579 297.327 524.579 293.833V27.1378C524.579 25.4077 524.239 23.6945 523.577 22.0961C522.916 20.4977 521.946 19.0454 520.724 17.822C519.502 16.5986 518.051 15.6282 516.454 14.9661C514.857 14.304 513.146 13.9633 511.417 13.9633Z" fill="#3F3D56"/>
<path d="M506.933 37.2462H37.6992V302.19H506.933V37.2462Z" fill="#F9A826"/>
<path d="M271.915 30.0205C274.573 30.0205 276.728 27.8638 276.728 25.2033C276.728 22.5429 274.573 20.3862 271.915 20.3862C269.257 20.3862 267.102 22.5429 267.102 25.2033C267.102 27.8638 269.257 30.0205 271.915 30.0205Z" fill="#F9A826"/>
<path opacity="0.1" d="M372.74 302.191H37.6992V37.2465L372.74 302.191Z" fill="black"/>
<path d="M111.12 282.365C136.03 282.365 156.224 262.152 156.224 237.218C156.224 212.284 136.03 192.072 111.12 192.072C86.2097 192.072 66.0159 212.284 66.0159 237.218C66.0159 262.152 86.2097 282.365 111.12 282.365Z" fill="#F2F2F2"/>
<path d="M425.231 180.133H381.4V189.3H425.231V180.133Z" fill="#3F3D56"/>
<path d="M478.222 108.758H328.41V112.687H478.222V108.758Z" fill="#3F3D56"/>
<path d="M478.222 121.199H328.41V125.128H478.222V121.199Z" fill="#3F3D56"/>
<path d="M478.222 133.641H328.41V137.57H478.222V133.641Z" fill="#3F3D56"/>
<path d="M478.222 146.082H328.41V150.011H478.222V146.082Z" fill="#3F3D56"/>
<path d="M478.222 158.524H328.41V162.453H478.222V158.524Z" fill="#3F3D56"/>
<path d="M478.222 42.6214H459.904V60.9563H478.222V42.6214Z" fill="#F2F2F2"/>
<path d="M486.727 69.4689H464.484V47.2051H486.727V69.4689ZM465.451 68.5009H485.759V48.1731H465.451V68.5009Z" fill="#3F3D56"/>
<path d="M537.754 297.373H491.96V294.071C491.96 293.985 491.943 293.9 491.91 293.82C491.877 293.741 491.829 293.668 491.769 293.608C491.708 293.547 491.636 293.499 491.556 293.466C491.477 293.433 491.392 293.416 491.306 293.416H475.605C475.519 293.416 475.434 293.433 475.355 293.466C475.275 293.499 475.203 293.547 475.142 293.608C475.082 293.668 475.034 293.741 475.001 293.82C474.968 293.9 474.951 293.985 474.951 294.071V297.373H465.138V294.071C465.138 293.985 465.121 293.9 465.088 293.82C465.055 293.741 465.007 293.668 464.946 293.608C464.885 293.547 464.813 293.499 464.734 293.466C464.655 293.433 464.57 293.416 464.484 293.416H448.783C448.697 293.416 448.612 293.433 448.532 293.466C448.453 293.499 448.381 293.547 448.32 293.608C448.259 293.668 448.211 293.741 448.178 293.82C448.145 293.9 448.129 293.985 448.129 294.071V297.373H438.316V294.071C438.316 293.985 438.299 293.9 438.266 293.82C438.233 293.741 438.185 293.668 438.124 293.608C438.063 293.547 437.991 293.499 437.912 293.466C437.832 293.433 437.747 293.416 437.661 293.416H421.961C421.875 293.416 421.79 293.433 421.71 293.466C421.631 293.499 421.559 293.547 421.498 293.608C421.437 293.668 421.389 293.741 421.356 293.82C421.323 293.9 421.306 293.985 421.306 294.071V297.373H411.493V294.071C411.493 293.985 411.476 293.9 411.443 293.82C411.411 293.741 411.362 293.668 411.302 293.608C411.241 293.547 411.169 293.499 411.089 293.466C411.01 293.433 410.925 293.416 410.839 293.416H395.138C395.052 293.416 394.967 293.433 394.888 293.466C394.808 293.499 394.736 293.547 394.676 293.608C394.615 293.668 394.567 293.741 394.534 293.82C394.501 293.9 394.484 293.985 394.484 294.071V297.373H384.671V294.071C384.671 293.985 384.654 293.9 384.621 293.82C384.588 293.741 384.54 293.668 384.479 293.608C384.419 293.547 384.346 293.499 384.267 293.466C384.188 293.433 384.103 293.416 384.017 293.416H368.316C368.23 293.416 368.145 293.433 368.066 293.466C367.986 293.499 367.914 293.547 367.853 293.608C367.793 293.668 367.744 293.741 367.711 293.82C367.679 293.9 367.662 293.985 367.662 294.071V297.373H357.849V294.071C357.849 293.985 357.832 293.9 357.799 293.82C357.766 293.741 357.718 293.668 357.657 293.608C357.596 293.547 357.524 293.499 357.445 293.466C357.365 293.433 357.28 293.416 357.194 293.416H341.494C341.408 293.416 341.323 293.433 341.243 293.466C341.164 293.499 341.092 293.547 341.031 293.608C340.97 293.668 340.922 293.741 340.889 293.82C340.856 293.9 340.839 293.985 340.839 294.071V297.373H331.026V294.071C331.026 293.985 331.009 293.9 330.977 293.82C330.944 293.741 330.895 293.668 330.835 293.608C330.774 293.547 330.702 293.499 330.622 293.466C330.543 293.433 330.458 293.416 330.372 293.416H207.382C207.296 293.416 207.211 293.433 207.132 293.466C207.052 293.499 206.98 293.547 206.92 293.608C206.859 293.668 206.811 293.741 206.778 293.82C206.745 293.9 206.728 293.985 206.728 294.071V297.373H196.915V294.071C196.915 293.985 196.898 293.9 196.865 293.82C196.832 293.741 196.784 293.668 196.723 293.608C196.663 293.547 196.59 293.499 196.511 293.466C196.432 293.433 196.347 293.416 196.261 293.416H180.56C180.474 293.416 180.389 293.433 180.309 293.466C180.23 293.499 180.158 293.547 180.097 293.608C180.036 293.668 179.988 293.741 179.955 293.82C179.923 293.9 179.906 293.985 179.906 294.071V297.373H170.093V294.071C170.093 293.985 170.076 293.9 170.043 293.82C170.01 293.741 169.962 293.668 169.901 293.608C169.84 293.547 169.768 293.499 169.689 293.466C169.609 293.433 169.524 293.416 169.438 293.416H153.738C153.652 293.416 153.567 293.433 153.487 293.466C153.408 293.499 153.336 293.547 153.275 293.608C153.214 293.668 153.166 293.741 153.133 293.82C153.1 293.9 153.083 293.985 153.083 294.071V297.373H143.27V294.071C143.27 293.985 143.253 293.9 143.221 293.82C143.188 293.741 143.139 293.668 143.079 293.608C143.018 293.547 142.946 293.499 142.866 293.466C142.787 293.433 142.702 293.416 142.616 293.416H126.915C126.829 293.416 126.744 293.433 126.665 293.466C126.586 293.499 126.513 293.547 126.453 293.608C126.392 293.668 126.344 293.741 126.311 293.82C126.278 293.9 126.261 293.985 126.261 294.071V297.373H116.448V294.071C116.448 293.985 116.431 293.9 116.398 293.82C116.365 293.741 116.317 293.668 116.256 293.608C116.196 293.547 116.124 293.499 116.044 293.466C115.965 293.433 115.88 293.416 115.794 293.416H100.093C100.007 293.416 99.922 293.433 99.8426 293.466C99.7632 293.499 99.6911 293.547 99.6303 293.608C99.5696 293.668 99.5214 293.741 99.4885 293.82C99.4557 293.9 99.4387 293.985 99.4387 294.071V297.373H89.6257V294.071C89.6257 293.985 89.6088 293.9 89.5759 293.82C89.5431 293.741 89.4949 293.668 89.4341 293.608C89.3734 293.547 89.3012 293.499 89.2219 293.466C89.1425 293.433 89.0574 293.416 88.9715 293.416H73.2707C73.1847 293.416 73.0997 293.433 73.0203 293.466C72.9409 293.499 72.8688 293.547 72.8081 293.608C72.7473 293.668 72.6991 293.741 72.6662 293.82C72.6334 293.9 72.6165 293.985 72.6165 294.071V297.373H62.8034V294.071C62.8034 293.985 62.7865 293.9 62.7536 293.82C62.7208 293.741 62.6726 293.668 62.6118 293.608C62.5511 293.547 62.479 293.499 62.3996 293.466C62.3202 293.433 62.2351 293.416 62.1492 293.416H46.4484C46.3624 293.416 46.2774 293.433 46.198 293.466C46.1186 293.499 46.0465 293.547 45.9858 293.608C45.925 293.668 45.8768 293.741 45.844 293.82C45.8111 293.9 45.7942 293.985 45.7942 294.071V297.373H15.7009C11.5367 297.373 7.54316 299.029 4.59868 301.976C1.6542 304.923 3.96717e-06 308.921 0 313.089V320.195C1.19015e-05 324.363 1.65421 328.36 4.59869 331.308C7.54317 334.255 11.5367 335.911 15.7009 335.911H537.754C541.918 335.911 545.912 334.255 548.856 331.308C551.801 328.36 553.455 324.363 553.455 320.195V313.089C553.455 308.921 551.801 304.923 548.856 301.976C545.912 299.029 541.918 297.373 537.754 297.373Z" fill="#3F3D56"/>
<path d="M122.038 265.416C110.796 265.416 99.8061 262.079 90.4585 255.827C81.111 249.576 73.8255 240.69 69.5233 230.294C65.2212 219.898 64.0955 208.458 66.2887 197.422C68.482 186.385 73.8956 176.248 81.845 168.291C89.7944 160.334 99.9226 154.915 110.949 152.72C121.975 150.525 133.404 151.651 143.79 155.957C154.177 160.264 163.054 167.556 169.3 176.912C175.546 186.269 178.879 197.269 178.879 208.521C178.862 223.605 172.868 238.067 162.212 248.733C151.556 259.399 137.108 265.399 122.038 265.416ZM122.038 153.124C111.092 153.124 100.391 156.373 91.2896 162.46C82.1881 168.547 75.0943 177.199 70.9053 187.322C66.7163 197.444 65.6203 208.583 67.7558 219.329C69.8914 230.075 75.1625 239.946 82.9027 247.693C90.6429 255.441 100.505 260.717 111.241 262.854C121.977 264.992 133.105 263.895 143.218 259.702C153.331 255.509 161.975 248.408 168.056 239.298C174.137 230.188 177.383 219.478 177.383 208.521C177.367 193.834 171.53 179.753 161.155 169.368C150.779 158.982 136.711 153.14 122.038 153.124Z" fill="#3F3D56"/>
<path d="M629.122 24.3623H438.405V25.8595H629.122V24.3623Z" fill="#3F3D56"/>
<path d="M852 419.63H303.781V421.128H852V419.63Z" fill="#3F3D56"/>
<path d="M334.819 488.503H144.102V490H334.819V488.503Z" fill="#3F3D56"/>
<path d="M373.208 411.738H352.267V432.699H373.208V411.738Z" fill="#F9A826"/>
<path d="M385.923 420.721H360.494V395.268H385.923V420.721ZM361.599 419.614H384.817V396.375H361.599V419.614Z" fill="#3F3D56"/>
<path d="M616.28 16.4695H595.338V37.4307H616.28V16.4695Z" fill="#F9A826"/>
<path d="M628.994 25.4529H603.565V0H628.994V25.4529ZM604.671 24.3462H627.889V1.10665H604.671V24.3462Z" fill="#3F3D56"/>
<path d="M827.191 411.738H806.25V432.699H827.191V411.738Z" fill="#F9A826"/>
<path d="M839.906 420.721H814.477V395.268H839.906V420.721ZM815.582 419.614H838.8V396.375H815.582V419.614Z" fill="#3F3D56"/>
<path d="M790.672 173.647H788.892V124.866C788.892 121.159 788.163 117.487 786.745 114.062C785.328 110.636 783.25 107.524 780.631 104.902C778.012 102.281 774.902 100.201 771.48 98.7823C768.058 97.3634 764.39 96.6332 760.686 96.6332H657.434C653.73 96.6332 650.062 97.3634 646.64 98.7823C643.218 100.201 640.108 102.281 637.489 104.902C634.87 107.524 632.792 110.636 631.374 114.062C629.957 117.487 629.227 121.159 629.227 124.866V392.482C629.227 396.189 629.957 399.861 631.374 403.286C632.792 406.711 634.87 409.824 637.489 412.446C640.108 415.067 643.218 417.147 646.64 418.566C650.062 419.984 653.73 420.715 657.434 420.715H760.686C764.39 420.715 768.058 419.984 771.48 418.566C774.902 417.147 778.012 415.067 780.631 412.445C783.25 409.824 785.328 406.711 786.745 403.286C788.163 399.861 788.892 396.189 788.892 392.482V208.37H790.672V173.647Z" fill="#3F3D56"/>
<path d="M782.886 126.526V393.751C782.887 399.343 780.668 404.706 776.719 408.661C772.769 412.616 767.411 414.838 761.824 414.839H658.074C652.487 414.838 647.13 412.616 643.18 408.661C639.23 404.706 637.012 399.343 637.013 393.751V126.526C637.014 120.935 639.233 115.573 643.182 111.62C647.132 107.666 652.489 105.445 658.074 105.445H670.662C670.042 106.966 669.806 108.616 669.973 110.249C670.141 111.883 670.708 113.451 671.623 114.814C672.539 116.177 673.775 117.294 675.223 118.066C676.672 118.838 678.287 119.242 679.928 119.242H739.081C740.721 119.242 742.337 118.838 743.785 118.066C745.234 117.294 746.47 116.177 747.386 114.814C748.301 113.451 748.867 111.883 749.035 110.249C749.203 108.616 748.967 106.966 748.347 105.445H761.825C767.41 105.445 772.767 107.666 776.716 111.62C780.666 115.573 782.885 120.935 782.886 126.526Z" fill="#F9A826"/>
<path d="M725.403 281.642H694.496V290.809H725.403V281.642Z" fill="#3F3D56"/>
<path d="M762.767 210.267H657.132V214.196H762.767V210.267Z" fill="#3F3D56"/>
<path d="M762.767 222.708H657.132V226.637H762.767V222.708Z" fill="#3F3D56"/>
<path d="M762.767 235.15H657.132V239.079H762.767V235.15Z" fill="#3F3D56"/>
<path d="M762.767 247.591H657.132V251.52H762.767V247.591Z" fill="#3F3D56"/>
<path d="M762.767 260.033H657.132V263.962H762.767V260.033Z" fill="#3F3D56"/>
<path d="M713.639 158.091H695.322V176.426H713.639V158.091Z" fill="#F2F2F2"/>
<path d="M702.334 162.676V184.94H724.577V162.676H702.334ZM723.612 183.974H703.299V163.642H723.612V183.974Z" fill="#3F3D56"/>
<path opacity="0.1" d="M782.886 365.214V393.751C782.887 399.343 780.668 404.706 776.719 408.661C772.769 412.616 767.411 414.838 761.824 414.839H658.074C652.487 414.838 647.13 412.616 643.18 408.661C639.23 404.706 637.012 399.343 637.013 393.751V249.86L724.421 318.979L725.917 320.162L742.177 333.016L743.695 334.221L782.886 365.214Z" fill="black"/>
<path d="M700.975 406.179C719.095 406.179 733.784 391.476 733.784 373.339C733.784 355.202 719.095 340.499 700.975 340.499C682.854 340.499 668.165 355.202 668.165 373.339C668.165 391.476 682.854 406.179 700.975 406.179Z" fill="#F2F2F2"/>
<path d="M239.46 490C226.591 490 214.01 486.18 203.31 479.024C192.61 471.867 184.27 461.695 179.345 449.795C174.42 437.894 173.131 424.798 175.642 412.165C178.153 399.531 184.35 387.926 193.45 378.817C202.55 369.709 214.144 363.506 226.766 360.993C239.388 358.48 252.471 359.769 264.361 364.699C276.25 369.628 286.413 377.976 293.562 388.687C300.712 399.397 304.528 411.989 304.528 424.871C304.509 442.138 297.647 458.693 285.449 470.903C273.25 483.112 256.711 489.98 239.46 490ZM239.46 361.238C226.887 361.238 214.595 364.97 204.141 371.962C193.687 378.954 185.538 388.892 180.727 400.52C175.915 412.147 174.656 424.941 177.109 437.285C179.562 449.628 185.617 460.966 194.507 469.865C203.398 478.764 214.726 484.825 227.058 487.28C239.389 489.735 252.172 488.475 263.788 483.659C275.405 478.843 285.333 470.687 292.319 460.223C299.304 449.759 303.033 437.456 303.033 424.871C303.014 408 296.31 391.826 284.392 379.897C272.474 367.968 256.315 361.258 239.46 361.238Z" fill="#3F3D56"/>
<path d="M710.645 398.669C702.509 398.669 694.556 396.254 687.791 391.73C681.027 387.206 675.754 380.775 672.641 373.252C669.528 365.728 668.713 357.45 670.3 349.463C671.887 341.476 675.805 334.139 681.558 328.381C687.311 322.623 694.64 318.702 702.62 317.113C710.599 315.524 718.87 316.339 726.387 319.456C733.903 322.572 740.328 327.85 744.848 334.621C749.368 341.392 751.78 349.352 751.78 357.495C751.768 368.412 747.43 378.877 739.718 386.596C732.007 394.315 721.551 398.657 710.645 398.669ZM710.645 317.819C702.805 317.819 695.141 320.146 688.622 324.506C682.104 328.865 677.023 335.062 674.023 342.312C671.023 349.562 670.238 357.539 671.767 365.236C673.297 372.932 677.072 380.002 682.616 385.551C688.159 391.1 695.222 394.879 702.912 396.41C710.601 397.941 718.571 397.155 725.814 394.152C733.057 391.149 739.248 386.063 743.604 379.539C747.959 373.014 750.284 365.343 750.284 357.495C750.272 346.976 746.092 336.891 738.661 329.453C731.23 322.015 721.154 317.831 710.645 317.819Z" fill="#3F3D56"/>
</g>
<defs>
<clipPath id="clip0_80_817">
<rect width="852" height="490" fill="white"/>
</clipPath>
</defs>
</svg>
