<svg width="510" height="389" viewBox="0 0 510 389" fill="none" xmlns="http://www.w3.org/2000/svg">
<g clip-path="url(#clip0_80_927)">
<path d="M176.716 378.849L181.726 380.35L189.899 361.734L182.504 359.519L176.716 378.849Z" fill="#FFB8B8"/>
<path d="M175.927 376.83L185.795 379.786C187.463 380.285 188.864 381.427 189.69 382.96C190.516 384.493 190.7 386.291 190.2 387.959L190.139 388.164L173.983 383.324L175.927 376.83Z" fill="#2F2E41"/>
<path d="M224.332 382.943L229.243 381.143L224.635 361.341L217.387 363.998L224.332 382.943Z" fill="#FFB8B8"/>
<path d="M222.492 381.799L232.163 378.252C233.798 377.653 235.604 377.728 237.184 378.46C238.763 379.192 239.987 380.522 240.587 382.157L240.66 382.357L224.825 388.164L222.492 381.799Z" fill="#2F2E41"/>
<path d="M185.117 345.149L176.584 373.313L186.823 376.3L196.636 350.27L185.117 345.149Z" fill="#2F2E41"/>
<path d="M211.995 351.55L219.675 378.006L230.341 372.886L222.661 348.136L211.995 351.55Z" fill="#2F2E41"/>
<path d="M207.999 356.322C201.169 356.291 194.355 355.662 187.634 354.443L187.463 354.409V347.9L183.564 347.467L186.608 336.595C185.189 319.844 187.205 298.632 187.857 292.526C188.007 291.094 188.105 290.291 188.105 290.291L191.527 261.197L197.253 255.91L199.855 257.603L204.68 262.429C210.289 276.235 214.739 289.232 214.767 290.067L233.577 350.354L233.451 350.444C226.919 355.055 216.963 356.322 207.999 356.322Z" fill="#3F3D56"/>
<path opacity="0.2" d="M193.954 274.101L192.639 282.312L201.542 285.986L193.954 274.101Z" fill="black"/>
<path d="M211.425 255.867H190.839C190.415 255.867 190.009 255.698 189.71 255.399C189.411 255.099 189.242 254.693 189.242 254.27V245.395C189.248 242.245 190.503 239.226 192.733 237.001C194.962 234.776 197.982 233.526 201.132 233.526C204.281 233.526 207.302 234.776 209.531 237.001C211.76 239.226 213.016 242.245 213.022 245.395V254.27C213.022 254.693 212.853 255.099 212.554 255.399C212.254 255.698 211.848 255.867 211.425 255.867Z" fill="#2F2E41"/>
<path d="M203.405 255.333C208.219 255.333 212.122 251.429 212.122 246.614C212.122 241.799 208.219 237.895 203.405 237.895C198.59 237.895 194.687 241.799 194.687 246.614C194.687 251.429 198.59 255.333 203.405 255.333Z" fill="#FFB8B8"/>
<path d="M215.835 246.283H203.247L203.118 244.475L202.473 246.283H200.534L200.279 242.7L198.999 246.283H195.249V246.105C195.252 243.611 196.244 241.22 198.007 239.456C199.77 237.693 202.161 236.701 204.655 236.698H206.429C208.923 236.701 211.314 237.693 213.077 239.456C214.84 241.22 215.832 243.611 215.835 246.105V246.283Z" fill="#2F2E41"/>
<path d="M203.144 257.524C203.049 257.524 202.955 257.516 202.861 257.499L193.644 255.872V240.636H203.791L203.539 240.929C200.044 245.006 202.677 251.617 204.558 255.194C204.697 255.456 204.759 255.752 204.736 256.048C204.714 256.344 204.609 256.627 204.433 256.865C204.286 257.069 204.092 257.235 203.868 257.35C203.644 257.464 203.396 257.524 203.144 257.524Z" fill="#2F2E41"/>
<path d="M219.408 294.351H214.356C214.194 294.351 214.037 294.291 213.917 294.182C213.797 294.073 213.722 293.924 213.707 293.762L212.696 283.395H221.069L220.057 293.762C220.042 293.923 219.967 294.073 219.847 294.182C219.727 294.291 219.57 294.351 219.408 294.351Z" fill="#F9A826"/>
<path d="M221.055 284.699H212.709C212.536 284.699 212.37 284.63 212.248 284.508C212.126 284.385 212.057 284.22 212.057 284.047V282.482C212.057 282.309 212.126 282.143 212.248 282.021C212.37 281.898 212.536 281.83 212.709 281.829H221.055C221.228 281.83 221.394 281.898 221.516 282.021C221.638 282.143 221.707 282.309 221.707 282.482V284.047C221.707 284.22 221.638 284.385 221.516 284.508C221.394 284.63 221.228 284.699 221.055 284.699Z" fill="#2F2E41"/>
<path opacity="0.2" d="M188.317 289.89C190.637 292.577 193.784 294.417 197.263 295.12C200.742 295.823 204.357 295.35 207.538 293.776L209.436 292.837L188.317 289.89Z" fill="black"/>
<path d="M218.651 287.883C218.262 287.446 217.783 287.1 217.245 286.868C216.708 286.637 216.127 286.526 215.542 286.544C214.958 286.561 214.384 286.707 213.862 286.97C213.34 287.234 212.881 287.608 212.52 288.068L203.718 285.597L200.912 290.58L213.391 293.896C214.203 294.452 215.191 294.692 216.168 294.568C217.145 294.445 218.043 293.967 218.691 293.226C219.34 292.485 219.694 291.532 219.686 290.547C219.679 289.562 219.311 288.614 218.651 287.883Z" fill="#FFB8B8"/>
<path d="M197.647 293.413C193.462 293.414 187.8 290.96 181.078 286.207C180.704 285.947 180.387 285.612 180.149 285.224C179.91 284.836 179.755 284.402 179.692 283.95C179.197 280.809 182.26 276.562 182.561 276.155L185.782 267.308C185.819 267.164 186.857 263.337 189.463 261.975C190.011 261.694 190.614 261.534 191.23 261.508C191.846 261.482 192.461 261.589 193.031 261.823C197.995 263.631 194.119 277.59 193.587 279.42L200.163 282.516L204.339 285.179L210.058 285.777L208.505 292.964L199.82 293.159C199.109 293.333 198.379 293.419 197.647 293.413Z" fill="#3F3D56"/>
<path d="M509.813 227.848C509.809 219.449 507.936 211.157 504.332 203.571C500.727 195.986 495.48 189.297 488.972 183.99C482.463 178.683 474.856 174.89 466.701 172.887C458.546 170.884 450.048 170.72 441.821 172.407C433.595 174.095 425.847 177.591 419.139 182.643C412.431 187.696 406.931 194.177 403.036 201.618C399.142 209.059 396.951 217.274 396.623 225.666C396.295 234.058 397.838 242.419 401.139 250.141C401.084 250.079 401.027 250.02 400.972 249.958C403.486 255.82 406.973 261.215 411.283 265.917C411.296 265.931 411.309 265.945 411.322 265.959C411.67 266.338 412.02 266.715 412.378 267.085C417.551 272.482 423.746 276.797 430.601 279.781C437.456 282.764 444.835 284.355 452.31 284.463L450.397 388.392H456.307L455.111 319.797L463.661 315.295L462.357 312.818L455.057 316.662L454.495 284.458C469.282 284.119 483.349 278.006 493.687 267.426C504.025 256.847 509.813 242.641 509.813 227.848Z" fill="#E6E6E6"/>
<path d="M341.773 200.249C341.768 190.406 339.574 180.688 335.349 171.798C331.125 162.909 324.976 155.07 317.349 148.851C309.721 142.631 300.806 138.187 291.249 135.839C281.692 133.491 271.733 133.299 262.092 135.277C252.452 137.254 243.372 141.352 235.511 147.273C227.65 153.194 221.203 160.789 216.64 169.51C212.076 178.23 209.509 187.856 209.124 197.691C208.74 207.527 210.548 217.324 214.417 226.374C214.352 226.302 214.285 226.232 214.22 226.159C217.167 233.029 221.253 239.352 226.305 244.862C226.32 244.878 226.335 244.895 226.35 244.911C226.758 245.355 227.168 245.798 227.587 246.231C233.65 252.556 240.909 257.613 248.943 261.109C256.976 264.605 265.624 266.47 274.384 266.596L272.142 388.392H279.069L277.667 308.005L287.687 302.729L286.158 299.826L277.603 304.33L276.945 266.59C294.274 266.193 310.759 259.029 322.874 246.631C334.99 234.233 341.773 217.585 341.773 200.249Z" fill="#E6E6E6"/>
<path d="M151.196 174.289C151.19 163.088 148.693 152.029 143.886 141.913C139.079 131.796 132.082 122.876 123.402 115.799C114.722 108.721 104.577 103.663 93.7009 100.992C82.8253 98.3202 71.4916 98.1016 60.5211 100.352C49.5505 102.603 39.2179 107.266 30.2718 114.003C21.3257 120.741 13.9902 129.385 8.79674 139.308C3.60329 149.232 0.681961 160.186 0.244422 171.379C-0.193118 182.571 1.86409 193.72 6.26699 204.019C6.19316 203.937 6.11687 203.857 6.0434 203.775C9.39708 211.592 14.0463 218.788 19.795 225.058C19.8122 225.076 19.8298 225.095 19.847 225.114C20.3109 225.619 20.7774 226.122 21.2546 226.615C28.1545 233.813 36.4152 239.568 45.5571 243.547C54.6991 247.525 64.5401 249.648 74.509 249.791L71.9576 388.392H79.84L78.2447 296.914L89.6468 290.91L87.9075 287.605L78.1718 292.732L77.4228 249.784C97.1426 249.332 115.902 241.179 129.689 227.071C143.476 212.962 151.196 194.017 151.196 174.289Z" fill="#E6E6E6"/>
<path d="M141.03 206.749C195.686 206.749 239.993 162.435 239.993 107.77C239.993 53.1056 195.686 8.79123 141.03 8.79123C86.3748 8.79123 42.0676 53.1056 42.0676 107.77C42.0676 162.435 86.3748 206.749 141.03 206.749Z" fill="#E19823"/>
<path opacity="0.2" d="M67.9595 41.66C58.7285 63.2565 57.4763 87.4323 64.4266 109.867C71.3768 132.302 86.0768 151.534 105.9 164.127C125.722 176.72 149.376 181.853 172.634 178.608C195.893 175.364 217.24 163.954 232.861 146.416C227.222 159.611 218.782 171.422 208.126 181.03C197.47 190.638 184.853 197.815 171.149 202.062C157.445 206.309 142.981 207.526 128.76 205.628C114.54 203.729 100.901 198.761 88.7907 191.068C76.6801 183.374 66.3866 173.139 58.6235 161.072C50.8604 149.005 45.8133 135.393 43.8318 121.182C41.8503 106.97 42.9818 92.4969 47.148 78.7658C51.3142 65.0347 58.4153 52.3737 67.9595 41.66Z" fill="black"/>
<path d="M141.302 107.77H141.574L146.468 388.392H136.137L141.302 107.77Z" fill="#3F3D56"/>
<path d="M157.042 256.292L140.683 264.906L142.963 269.237L159.322 260.623L157.042 256.292Z" fill="#3F3D56"/>
<path d="M292.397 385.767C292.397 385.767 292.754 378.284 300.074 379.154L292.397 385.767Z" fill="#3F3D56"/>
<path d="M290.329 378.646C292.352 378.646 293.992 377.006 293.992 374.982C293.992 372.958 292.352 371.318 290.329 371.318C288.306 371.318 286.666 372.958 286.666 374.982C286.666 377.006 288.306 378.646 290.329 378.646Z" fill="#F9A826"/>
<path d="M290.767 381.152H289.733V388.392H290.767V381.152Z" fill="#3F3D56"/>
<path d="M38.5273 384.733C38.5273 384.733 38.8844 377.25 46.204 378.12L38.5273 384.733Z" fill="#3F3D56"/>
<path d="M36.4591 377.612C38.4823 377.612 40.1225 375.971 40.1225 373.948C40.1225 371.924 38.4823 370.284 36.4591 370.284C34.4358 370.284 32.7957 371.924 32.7957 373.948C32.7957 375.971 34.4358 377.612 36.4591 377.612Z" fill="#F9A826"/>
<path d="M36.8971 380.118H35.863V387.358H36.8971V380.118Z" fill="#3F3D56"/>
<path d="M98.5046 385.25C98.5046 385.25 98.8617 377.767 106.181 378.637L98.5046 385.25Z" fill="#3F3D56"/>
<path d="M96.4366 378.129C98.4599 378.129 100.1 376.489 100.1 374.465C100.1 372.441 98.4599 370.801 96.4366 370.801C94.4134 370.801 92.7732 372.441 92.7732 374.465C92.7732 376.489 94.4134 378.129 96.4366 378.129Z" fill="#F9A826"/>
<path d="M96.8747 380.635H95.8406V387.875H96.8747V380.635Z" fill="#3F3D56"/>
<path d="M258.011 47.8482L265.36 41.9699C259.651 41.34 257.306 44.4539 256.346 46.9185C251.886 45.0663 247.031 47.4937 247.031 47.4937L261.734 52.8322C260.992 50.8507 259.701 49.1218 258.011 47.8482Z" fill="#3F3D56"/>
<path d="M369.766 107.726L377.114 101.848C371.405 101.218 369.06 104.332 368.1 106.797C363.64 104.944 358.785 107.372 358.785 107.372L373.488 112.71C372.746 110.729 371.455 109 369.766 107.726Z" fill="#3F3D56"/>
<path d="M249.231 158.822L256.579 152.944C250.87 152.314 248.525 155.428 247.565 157.893C243.105 156.04 238.25 158.468 238.25 158.468L252.953 163.806C252.211 161.825 250.92 160.096 249.231 158.822Z" fill="#3F3D56"/>
<path d="M392.64 388.483C392.64 388.483 392.997 381 400.317 381.87L392.64 388.483Z" fill="#3F3D56"/>
<path d="M323.873 388.483C323.873 388.483 324.23 381 331.549 381.87L323.873 388.483Z" fill="#3F3D56"/>
<path d="M73.105 388.483C73.105 388.483 73.462 381 80.7816 381.87L73.105 388.483Z" fill="#3F3D56"/>
<path d="M423.663 388.483C423.663 388.483 424.02 381 431.339 381.87L423.663 388.483Z" fill="#3F3D56"/>
<path d="M409.185 388.483C409.185 388.483 409.542 381 416.862 381.87L409.185 388.483Z" fill="#3F3D56"/>
<path d="M379.321 388.483C379.321 388.483 378.964 381 371.645 381.87L379.321 388.483Z" fill="#3F3D56"/>
<path d="M260.401 388.483C260.401 388.483 260.043 381 252.724 381.87L260.401 388.483Z" fill="#3F3D56"/>
<path d="M161.644 388.483C161.644 388.483 161.287 381 153.968 381.87L161.644 388.483Z" fill="#3F3D56"/>
<path d="M56.684 388.483C56.684 388.483 56.3269 381 49.0073 381.87L56.684 388.483Z" fill="#3F3D56"/>
<path d="M454.81 388.483C454.81 388.483 454.453 381 447.133 381.87L454.81 388.483Z" fill="#3F3D56"/>
<path d="M410.344 389C410.344 389 409.987 381.517 402.667 382.387L410.344 389Z" fill="#3F3D56"/>
<path d="M510 387.504H0V388.653H510V387.504Z" fill="#3F3D56"/>
</g>
<defs>
<clipPath id="clip0_80_927">
<rect width="510" height="389" fill="white"/>
</clipPath>
</defs>
</svg>
