<svg width="465" height="130" viewBox="0 0 465 130" fill="none" xmlns="http://www.w3.org/2000/svg">
<rect x="0.5" y="0.500488" width="464" height="59" rx="19.5" fill="white"/>
<rect x="0.5" y="0.500488" width="464" height="59" rx="19.5" stroke="#D8D8D8"/>
<path opacity="0.2" d="M30 32.5005C32.7614 32.5005 35 30.2619 35 27.5005C35 24.7391 32.7614 22.5005 30 22.5005C27.2386 22.5005 25 24.7391 25 27.5005C25 30.2619 27.2386 32.5005 30 32.5005Z" fill="#F29130"/>
<path d="M30 32.5005C32.7614 32.5005 35 30.2619 35 27.5005C35 24.7391 32.7614 22.5005 30 22.5005C27.2386 22.5005 25 24.7391 25 27.5005C25 30.2619 27.2386 32.5005 30 32.5005Z" stroke="#F29130" stroke-width="0.740741" stroke-miterlimit="10"/>
<path d="M22.4219 36.8755C23.1898 35.5451 24.2944 34.4403 25.6247 33.6722C26.9549 32.9041 28.4639 32.4998 30 32.4998C31.5361 32.4998 33.0451 32.9041 34.3753 33.6722C35.7056 34.4403 36.8102 35.5451 37.5781 36.8755" stroke="#F29130" stroke-width="0.740741" stroke-linecap="round" stroke-linejoin="round"/>
<rect x="48" y="20.0005" width="1" height="20" fill="#D9D9D9"/>
<path d="M62.408 36.0005V24.7205H69.448V25.8085H63.736V29.7605H69.096V30.8485H63.736V36.0005H62.408ZM73.9085 36.1445C72.9592 36.1445 72.2392 35.8832 71.7485 35.3605C71.2685 34.8378 71.0285 34.0378 71.0285 32.9605V27.9685H72.3245V32.9285C72.3245 33.6645 72.4738 34.2085 72.7725 34.5605C73.0712 34.9018 73.5352 35.0725 74.1645 35.0725C74.8685 35.0725 75.4338 34.8432 75.8605 34.3845C76.2872 33.9258 76.5005 33.3125 76.5005 32.5445V27.9685H77.7965V36.0005H76.5325V34.1925H76.7405C76.5165 34.8112 76.1538 35.2912 75.6525 35.6325C75.1618 35.9738 74.5805 36.1445 73.9085 36.1445ZM80.3109 36.0005V24.2245H81.6069V36.0005H80.3109ZM84.1234 36.0005V24.2245H85.4194V36.0005H84.1234ZM92.2518 36.0005V24.7205H93.2918L100.524 34.3205H100.156V24.7205H101.388V36.0005H100.364L93.1318 26.4005H93.4838V36.0005H92.2518ZM107.117 36.1445C106.402 36.1445 105.778 35.9792 105.245 35.6485C104.712 35.3072 104.296 34.8272 103.997 34.2085C103.709 33.5898 103.565 32.8485 103.565 31.9845C103.565 31.1098 103.709 30.3632 103.997 29.7445C104.296 29.1258 104.712 28.6512 105.245 28.3205C105.778 27.9898 106.402 27.8245 107.117 27.8245C107.842 27.8245 108.466 28.0112 108.989 28.3845C109.522 28.7472 109.874 29.2432 110.045 29.8725H109.853L110.029 27.9685H111.277C111.245 28.2778 111.213 28.5925 111.181 28.9125C111.16 29.2218 111.149 29.5258 111.149 29.8245V36.0005H109.853V34.1125H110.029C109.858 34.7418 109.506 35.2378 108.973 35.6005C108.44 35.9632 107.821 36.1445 107.117 36.1445ZM107.373 35.0885C108.141 35.0885 108.749 34.8272 109.197 34.3045C109.645 33.7712 109.869 32.9978 109.869 31.9845C109.869 30.9605 109.645 30.1872 109.197 29.6645C108.749 29.1312 108.141 28.8645 107.373 28.8645C106.616 28.8645 106.008 29.1312 105.549 29.6645C105.101 30.1872 104.877 30.9605 104.877 31.9845C104.877 32.9978 105.101 33.7712 105.549 34.3045C106.008 34.8272 106.616 35.0885 107.373 35.0885ZM113.655 36.0005V29.8245C113.655 29.5258 113.639 29.2218 113.607 28.9125C113.585 28.5925 113.559 28.2778 113.527 27.9685H114.775L114.935 29.7285H114.743C114.956 29.1205 115.292 28.6512 115.751 28.3205C116.22 27.9898 116.785 27.8245 117.447 27.8245C118.119 27.8245 118.663 27.9845 119.079 28.3045C119.505 28.6245 119.793 29.1205 119.943 29.7925H119.703C119.905 29.1845 120.263 28.7045 120.775 28.3525C121.287 28.0005 121.884 27.8245 122.567 27.8245C123.452 27.8245 124.119 28.0805 124.567 28.5925C125.015 29.0938 125.239 29.8885 125.239 30.9765V36.0005H123.943V31.0565C123.943 30.2992 123.809 29.7498 123.543 29.4085C123.276 29.0565 122.849 28.8805 122.263 28.8805C121.591 28.8805 121.057 29.1152 120.663 29.5845C120.279 30.0432 120.087 30.6618 120.087 31.4405V36.0005H118.791V31.0565C118.791 30.2992 118.657 29.7498 118.391 29.4085C118.124 29.0565 117.697 28.8805 117.111 28.8805C116.439 28.8805 115.911 29.1152 115.527 29.5845C115.143 30.0432 114.951 30.6618 114.951 31.4405V36.0005H113.655ZM131.27 36.1445C130.011 36.1445 129.019 35.7818 128.294 35.0565C127.568 34.3205 127.206 33.3018 127.206 32.0005C127.206 31.1578 127.366 30.4272 127.686 29.8085C128.006 29.1792 128.454 28.6938 129.03 28.3525C129.606 28.0005 130.267 27.8245 131.014 27.8245C131.75 27.8245 132.368 27.9792 132.87 28.2885C133.371 28.5978 133.755 29.0405 134.022 29.6165C134.288 30.1818 134.422 30.8538 134.422 31.6325V32.1125H128.198V31.2965H133.574L133.302 31.5045C133.302 30.6512 133.11 29.9845 132.726 29.5045C132.342 29.0245 131.771 28.7845 131.014 28.7845C130.214 28.7845 129.59 29.0672 129.142 29.6325C128.694 30.1872 128.47 30.9392 128.47 31.8885V32.0325C128.47 33.0352 128.715 33.7978 129.206 34.3205C129.707 34.8325 130.406 35.0885 131.302 35.0885C131.782 35.0885 132.23 35.0192 132.646 34.8805C133.072 34.7312 133.478 34.4912 133.862 34.1605L134.31 35.0725C133.958 35.4138 133.51 35.6805 132.966 35.8725C132.432 36.0538 131.867 36.1445 131.27 36.1445Z" fill="#2D2D2D"/>
<rect x="0.5" y="70.5005" width="464" height="59" rx="19.5" fill="white"/>
<rect x="0.5" y="70.5005" width="464" height="59" rx="19.5" stroke="#D8D8D8"/>
<path opacity="0.2" d="M37.5 94.3755L30 101.25L22.5 94.3755H37.5Z" fill="#F29130"/>
<path d="M22.5 94.3755H37.5V105C37.5 105.166 37.4342 105.325 37.3169 105.442C37.1997 105.56 37.0408 105.625 36.875 105.625H23.125C22.9592 105.625 22.8003 105.56 22.6831 105.442C22.5658 105.325 22.5 105.166 22.5 105V94.3755Z" stroke="#F29130" stroke-width="0.740741" stroke-linecap="round" stroke-linejoin="round"/>
<path d="M37.5 94.3755L30 101.25L22.5 94.3755" stroke="#F29130" stroke-width="0.740741" stroke-linecap="round" stroke-linejoin="round"/>
<rect x="48" y="90.0005" width="1" height="20" fill="#D9D9D9"/>
<path d="M62.408 106V94.7205H69.608V95.8085H63.704V99.7285H69.256V100.832H63.704V104.896H69.608V106H62.408ZM71.6703 106V99.8245C71.6703 99.5258 71.6543 99.2218 71.6223 98.9125C71.6009 98.5925 71.5743 98.2778 71.5423 97.9685H72.7903L72.9503 99.7285H72.7582C72.9716 99.1205 73.3076 98.6512 73.7663 98.3205C74.2356 97.9898 74.8009 97.8245 75.4623 97.8245C76.1343 97.8245 76.6783 97.9845 77.0943 98.3045C77.5209 98.6245 77.8089 99.1205 77.9583 99.7925H77.7183C77.9209 99.1845 78.2783 98.7045 78.7903 98.3525C79.3023 98.0005 79.8996 97.8245 80.5823 97.8245C81.4676 97.8245 82.1343 98.0805 82.5823 98.5925C83.0303 99.0938 83.2543 99.8885 83.2543 100.976V106H81.9583V101.056C81.9583 100.299 81.8249 99.7498 81.5583 99.4085C81.2916 99.0565 80.8649 98.8805 80.2783 98.8805C79.6063 98.8805 79.0729 99.1152 78.6783 99.5845C78.2943 100.043 78.1023 100.662 78.1023 101.44V106H76.8063V101.056C76.8063 100.299 76.6729 99.7498 76.4063 99.4085C76.1396 99.0565 75.7129 98.8805 75.1263 98.8805C74.4543 98.8805 73.9263 99.1152 73.5423 99.5845C73.1583 100.043 72.9663 100.662 72.9663 101.44V106H71.6703ZM88.7731 106.144C88.0585 106.144 87.4345 105.979 86.9011 105.648C86.3678 105.307 85.9518 104.827 85.6531 104.208C85.3651 103.59 85.2211 102.848 85.2211 101.984C85.2211 101.11 85.3651 100.363 85.6531 99.7445C85.9518 99.1258 86.3678 98.6512 86.9011 98.3205C87.4345 97.9898 88.0585 97.8245 88.7731 97.8245C89.4985 97.8245 90.1225 98.0112 90.6451 98.3845C91.1785 98.7472 91.5305 99.2432 91.7011 99.8725H91.5091L91.6851 97.9685H92.9331C92.9011 98.2778 92.8691 98.5925 92.8371 98.9125C92.8158 99.2218 92.8051 99.5258 92.8051 99.8245V106H91.5091V104.112H91.6851C91.5145 104.742 91.1625 105.238 90.6291 105.6C90.0958 105.963 89.4771 106.144 88.7731 106.144ZM89.0291 105.088C89.7971 105.088 90.4051 104.827 90.8531 104.304C91.3011 103.771 91.5251 102.998 91.5251 101.984C91.5251 100.96 91.3011 100.187 90.8531 99.6645C90.4051 99.1312 89.7971 98.8645 89.0291 98.8645C88.2718 98.8645 87.6638 99.1312 87.2051 99.6645C86.7571 100.187 86.5331 100.96 86.5331 101.984C86.5331 102.998 86.7571 103.771 87.2051 104.304C87.6638 104.827 88.2718 105.088 89.0291 105.088ZM95.3109 106V97.9685H96.6069V106H95.3109ZM95.1509 96.1445V94.6885H96.7509V96.1445H95.1509ZM99.1234 106V94.2245H100.419V106H99.1234Z" fill="#2D2D2D"/>
</svg>
