<svg width="470" height="454" viewBox="0 0 470 454" fill="none" xmlns="http://www.w3.org/2000/svg">
<g clip-path="url(#clip0_80_617)">
<path d="M428.798 453.524V407.997C428.798 407.997 446.559 440.274 428.798 453.524Z" fill="#F1F1F1"/>
<path d="M429.895 453.516L396.321 422.728C396.321 422.728 432.135 431.486 429.895 453.516Z" fill="#F1F1F1"/>
<path d="M311.477 200.882L133.315 304.899C132.692 305.262 131.949 305.364 131.251 305.181C130.553 304.998 129.956 304.546 129.591 303.924L15.021 108.109C14.6575 107.486 14.5562 106.744 14.7393 106.047C14.9224 105.35 15.375 104.753 15.9977 104.389L194.16 0.371083C194.784 0.00797714 195.526 -0.0932251 196.224 0.0896782C196.922 0.272581 197.519 0.724655 197.884 1.34672L312.454 197.162C312.818 197.785 312.919 198.526 312.736 199.223C312.553 199.921 312.1 200.517 311.477 200.882Z" fill="white"/>
<path d="M311.477 200.882L133.315 304.899C132.692 305.262 131.949 305.364 131.251 305.181C130.553 304.998 129.956 304.546 129.591 303.924L15.021 108.109C14.6575 107.486 14.5562 106.744 14.7393 106.047C14.9224 105.35 15.375 104.753 15.9977 104.389L194.16 0.371083C194.784 0.00797714 195.526 -0.0932251 196.224 0.0896782C196.922 0.272581 197.519 0.724655 197.884 1.34672L312.454 197.162C312.818 197.785 312.919 198.526 312.736 199.223C312.553 199.921 312.1 200.517 311.477 200.882ZM16.5472 105.328C16.1736 105.547 15.902 105.904 15.7921 106.323C15.6823 106.741 15.7431 107.186 15.9612 107.56L130.531 303.375C130.75 303.748 131.108 304.019 131.527 304.129C131.946 304.239 132.391 304.178 132.766 303.96L310.928 199.943C311.302 199.724 311.573 199.366 311.683 198.948C311.793 198.529 311.732 198.084 311.514 197.71L196.944 1.8956C196.725 1.52234 196.367 1.25108 195.948 1.14133C195.529 1.03159 195.084 1.09232 194.709 1.31021L16.5472 105.328Z" fill="#3F3D56"/>
<path d="M131.071 124.828L86.8828 150.627C86.2592 150.99 85.5169 151.091 84.8187 150.908C84.1206 150.725 83.5235 150.273 83.1586 149.651L57.3323 105.511C56.9688 104.888 56.8675 104.146 57.0506 103.449C57.2337 102.751 57.6863 102.155 58.309 101.79L102.497 75.9919C103.121 75.6288 103.863 75.5276 104.561 75.7105C105.259 75.8934 105.856 76.3455 106.221 76.9676L132.047 121.108C132.411 121.731 132.512 122.472 132.329 123.17C132.146 123.867 131.694 124.464 131.071 124.828ZM58.8585 102.73C58.4848 102.948 58.2133 103.306 58.1034 103.725C57.9936 104.143 58.0544 104.588 58.2725 104.962L84.0988 149.102C84.3177 149.476 84.676 149.747 85.0949 149.857C85.5138 149.966 85.9592 149.906 86.3333 149.688L130.521 123.889C130.895 123.67 131.167 123.313 131.276 122.894C131.386 122.476 131.325 122.031 131.107 121.657L105.281 77.5165C105.062 77.1432 104.704 76.872 104.285 76.7622C103.866 76.6525 103.421 76.7132 103.046 76.9311L58.8585 102.73Z" fill="#F2F2F2"/>
<path d="M121.538 137.639L77.35 163.437C76.7888 163.764 76.1207 163.855 75.4924 163.69C74.864 163.526 74.3267 163.119 73.9983 162.559L48.1719 118.418C47.8448 117.858 47.7536 117.191 47.9184 116.563C48.0832 115.935 48.4905 115.398 49.0509 115.07L93.239 89.2718C93.8002 88.945 94.4682 88.8539 95.0966 89.0185C95.7249 89.1831 96.2623 89.59 96.5907 90.1499L122.417 134.29C122.744 134.851 122.835 135.518 122.671 136.146C122.506 136.774 122.098 137.31 121.538 137.639Z" fill="#72D7E4"/>
<path d="M228.193 104.349L89.9883 185.038C89.4273 185.365 88.759 185.457 88.1304 185.292C87.5018 185.128 86.9645 184.72 86.6366 184.16C86.3087 183.599 86.2171 182.932 86.3819 182.304C86.5468 181.676 86.9546 181.139 87.5156 180.812L225.721 100.123C225.998 99.9604 226.305 99.8544 226.624 99.8108C226.943 99.7671 227.267 99.7866 227.579 99.8681C227.89 99.9497 228.182 100.092 228.438 100.286C228.695 100.48 228.91 100.723 229.072 101.001C229.235 101.278 229.341 101.585 229.384 101.903C229.428 102.222 229.409 102.546 229.327 102.857C229.245 103.167 229.103 103.459 228.909 103.715C228.714 103.971 228.471 104.187 228.193 104.349Z" fill="#CCCCCC"/>
<path d="M203.335 138.392L98.5057 199.595C98.2279 199.757 97.9208 199.863 97.602 199.907C97.2832 199.95 96.959 199.931 96.6477 199.849C96.0192 199.685 95.4818 199.277 95.1539 198.717C94.826 198.156 94.7344 197.489 94.8992 196.861C95.0641 196.233 95.4719 195.696 96.0329 195.369L200.862 134.166C201.14 134.003 201.447 133.897 201.766 133.854C202.084 133.81 202.409 133.83 202.72 133.911C203.031 133.993 203.323 134.135 203.579 134.329C203.836 134.523 204.051 134.766 204.214 135.044C204.376 135.321 204.482 135.628 204.526 135.946C204.569 136.265 204.55 136.589 204.468 136.9C204.387 137.211 204.245 137.502 204.05 137.758C203.856 138.014 203.612 138.23 203.335 138.392Z" fill="#CCCCCC"/>
<path d="M196.402 51.0911L135.291 86.7699C134.73 87.0975 134.062 87.189 133.433 87.0243C132.805 86.8597 132.267 86.4523 131.939 85.8919C131.611 85.3314 131.52 84.6638 131.685 84.0359C131.849 83.408 132.257 82.8713 132.818 82.5437L193.929 46.8649C194.49 46.5373 195.159 46.4458 195.787 46.6105C196.099 46.692 196.391 46.834 196.647 47.0283C196.903 47.2226 197.119 47.4654 197.281 47.7429C197.444 48.0204 197.55 48.3271 197.593 48.6456C197.637 48.964 197.617 49.2879 197.536 49.5988C197.454 49.9098 197.312 50.2016 197.118 50.4576C196.923 50.7136 196.68 50.9289 196.402 51.0911Z" fill="#CCCCCC"/>
<path d="M189.668 74.5523L143.808 101.327C143.53 101.489 143.223 101.595 142.905 101.639C142.586 101.682 142.261 101.663 141.95 101.581C141.639 101.5 141.347 101.358 141.091 101.163C140.834 100.969 140.619 100.726 140.456 100.449C140.294 100.171 140.188 99.8646 140.144 99.5461C140.101 99.2277 140.12 98.9038 140.202 98.5929C140.283 98.282 140.425 97.9902 140.62 97.7341C140.815 97.4781 141.058 97.2629 141.335 97.1007L187.195 70.326C187.756 69.9985 188.425 69.907 189.053 70.0716C189.682 70.2363 190.219 70.6437 190.547 71.2041C190.875 71.7645 190.966 72.4321 190.802 73.06C190.637 73.6879 190.229 74.2247 189.668 74.5523Z" fill="#CCCCCC"/>
<path d="M245.228 133.463L107.023 214.152C106.462 214.479 105.793 214.571 105.165 214.406C104.536 214.242 103.999 213.834 103.671 213.274C103.343 212.713 103.251 212.046 103.416 211.418C103.581 210.79 103.989 210.253 104.55 209.926L242.755 129.236C243.316 128.909 243.984 128.817 244.613 128.982C245.242 129.147 245.779 129.554 246.107 130.115C246.435 130.675 246.526 131.343 246.361 131.97C246.197 132.598 245.789 133.135 245.228 133.463Z" fill="#CCCCCC"/>
<path d="M220.369 167.506L115.54 228.709C115.262 228.871 114.955 228.977 114.636 229.021C114.317 229.064 113.993 229.045 113.682 228.963C113.371 228.882 113.079 228.74 112.822 228.545C112.566 228.351 112.35 228.108 112.188 227.831C112.026 227.553 111.92 227.247 111.876 226.928C111.832 226.61 111.852 226.286 111.933 225.975C112.015 225.664 112.157 225.372 112.352 225.116C112.546 224.86 112.789 224.645 113.067 224.483L217.896 163.28C218.174 163.117 218.481 163.012 218.8 162.968C219.119 162.924 219.443 162.944 219.754 163.025C220.065 163.107 220.357 163.249 220.614 163.443C220.87 163.637 221.085 163.88 221.248 164.158C221.41 164.435 221.516 164.742 221.56 165.06C221.604 165.379 221.584 165.703 221.503 166.014C221.421 166.325 221.279 166.616 221.084 166.872C220.89 167.128 220.647 167.344 220.369 167.506Z" fill="#CCCCCC"/>
<path d="M262.262 162.577L124.057 243.266C123.779 243.428 123.472 243.534 123.154 243.578C122.835 243.621 122.51 243.602 122.199 243.52C121.888 243.439 121.596 243.297 121.34 243.102C121.083 242.908 120.868 242.665 120.705 242.388C120.543 242.11 120.437 241.804 120.393 241.485C120.35 241.167 120.369 240.843 120.451 240.532C120.532 240.221 120.675 239.929 120.869 239.673C121.064 239.417 121.307 239.202 121.584 239.04L259.789 158.35C260.067 158.188 260.374 158.082 260.693 158.039C261.012 157.995 261.336 158.015 261.647 158.096C261.959 158.178 262.251 158.32 262.507 158.514C262.763 158.708 262.979 158.951 263.141 159.229C263.304 159.506 263.41 159.813 263.453 160.131C263.497 160.45 263.477 160.774 263.396 161.084C263.314 161.395 263.172 161.687 262.978 161.943C262.783 162.199 262.54 162.414 262.262 162.577Z" fill="#CCCCCC"/>
<path d="M270.779 177.134L132.574 257.823C132.296 257.985 131.989 258.091 131.671 258.135C131.352 258.178 131.028 258.159 130.716 258.077C130.405 257.996 130.113 257.854 129.857 257.659C129.6 257.465 129.385 257.222 129.223 256.945C129.06 256.667 128.954 256.361 128.91 256.042C128.867 255.724 128.886 255.4 128.968 255.089C129.049 254.778 129.192 254.486 129.386 254.23C129.581 253.974 129.824 253.759 130.102 253.597L268.307 172.907C268.584 172.745 268.891 172.639 269.21 172.596C269.529 172.552 269.853 172.572 270.164 172.653C270.476 172.735 270.768 172.877 271.024 173.071C271.28 173.265 271.496 173.508 271.658 173.786C271.821 174.063 271.927 174.37 271.97 174.688C272.014 175.007 271.995 175.331 271.913 175.641C271.831 175.952 271.689 176.244 271.495 176.5C271.3 176.756 271.057 176.971 270.779 177.134Z" fill="#CCCCCC"/>
<path d="M226.087 233.802C228.007 231.544 229.735 229.129 231.254 226.583C232.616 224.287 233.952 221.832 234.252 219.139C234.405 217.992 234.286 216.825 233.903 215.733C233.52 214.641 232.884 213.655 232.048 212.854C231.239 212.11 230.214 211.642 229.122 211.517C228.029 211.393 226.926 211.62 225.97 212.164C225.004 212.718 224.205 213.523 223.659 214.494C223.113 215.464 222.84 216.564 222.869 217.677C222.947 218.902 223.302 220.094 223.906 221.164C224.509 222.233 225.347 223.153 226.357 223.853C230.442 226.81 236.821 226.655 241.175 224.406C246.079 221.871 248.613 215.241 244.76 210.703C243.959 209.759 242.625 210.814 242.826 211.832C243.081 213.208 243.851 214.434 244.981 215.261C246.11 216.088 247.513 216.453 248.903 216.281C250.292 216.11 251.564 215.415 252.458 214.338C253.352 213.261 253.801 211.884 253.712 210.488L251.98 211.499C254.104 212.439 256.438 212.803 258.747 212.556C261.056 212.308 263.259 211.458 265.135 210.09C266.063 209.416 266.891 208.616 267.596 207.713C268.444 206.608 269.868 205.894 271.022 205.099L279.332 199.363C280.554 198.519 279.392 196.508 278.159 197.359L270.633 202.554C269.379 203.419 268.117 204.274 266.87 205.151C265.979 205.778 265.431 206.79 264.62 207.534C263.085 208.913 261.189 209.828 259.153 210.172C257.117 210.516 255.025 210.275 253.121 209.477C252.943 209.382 252.744 209.333 252.543 209.337C252.342 209.341 252.145 209.396 251.971 209.497C251.797 209.599 251.652 209.743 251.55 209.917C251.448 210.09 251.393 210.287 251.389 210.488C251.48 211.321 251.239 212.157 250.717 212.813C250.195 213.469 249.434 213.892 248.601 213.991C247.768 214.089 246.93 213.855 246.269 213.339C245.608 212.823 245.178 212.067 245.072 211.236L243.138 212.365C245.623 215.293 243.968 219.783 241.105 221.748C237.902 223.945 233.171 224.326 229.561 222.96C228.676 222.656 227.862 222.173 227.172 221.54C226.483 220.908 225.93 220.14 225.551 219.285C225.199 218.512 225.099 217.649 225.264 216.817C225.429 215.984 225.852 215.225 226.472 214.645C227.009 214.114 227.732 213.813 228.488 213.805C229.243 213.797 229.972 214.083 230.521 214.602C231.119 215.211 231.557 215.958 231.798 216.777C232.039 217.595 232.074 218.461 231.901 219.296C231.529 221.621 230.242 223.765 229.045 225.751C227.679 228.014 226.133 230.165 224.423 232.181C223.464 233.314 225.118 234.947 226.087 233.802Z" fill="#F9A826"/>
<path d="M246.714 288.985C246.914 289.19 247.098 289.411 247.263 289.646L272.999 289.017L276.001 283.537L284.873 286.982L280.502 297.2C280.149 298.025 279.537 298.714 278.759 299.163C277.981 299.611 277.078 299.795 276.185 299.688L247.109 296.179C246.423 297.046 245.489 297.685 244.431 298.009C243.373 298.333 242.242 298.328 241.187 297.994C240.132 297.66 239.204 297.013 238.526 296.14C237.848 295.266 237.453 294.207 237.392 293.103C237.332 292 237.609 290.904 238.187 289.961C238.765 289.019 239.617 288.274 240.629 287.827C241.641 287.38 242.765 287.251 243.852 287.458C244.939 287.665 245.937 288.197 246.714 288.985Z" fill="#FFB7B7"/>
<path d="M330.608 445.112H322.146L318.121 412.507L330.61 412.507L330.608 445.112Z" fill="#FFB7B7"/>
<path d="M332.766 453.306L305.481 453.305V452.96C305.481 450.146 306.6 447.448 308.592 445.459C310.584 443.469 313.285 442.351 316.101 442.351H316.102L332.767 442.352L332.766 453.306Z" fill="#2F2E41"/>
<path d="M253.77 444.924L245.988 441.603L255.108 410.04L266.593 414.941L253.77 444.924Z" fill="#FFB7B7"/>
<path d="M252.532 453.306L227.441 442.598L227.576 442.281C228.683 439.694 230.773 437.651 233.387 436.603C236.001 435.555 238.925 435.587 241.515 436.692L241.515 436.693L256.84 443.233L252.532 453.306Z" fill="#2F2E41"/>
<path d="M289.477 296.048L288.865 305.953L306.752 307.865L325.467 309.866L319.958 294.825L289.477 296.048Z" fill="#FFB7B7"/>
<path d="M288.302 306.08L281.353 257.691L293.397 253.748L296.934 248.902L314.149 249.919L316.676 255.574L325.855 259.907L324.444 286.076L325.473 307.968L288.302 306.08Z" fill="#2F2E41"/>
<path d="M283.928 293.113L271.678 288.217L271.73 287.999C271.783 287.779 276.997 266.014 277.689 262.516C278.41 258.873 281.045 257.865 281.157 257.824L281.239 257.794L286.087 259.268L288.216 275.98L283.928 293.113Z" fill="#2F2E41"/>
<path d="M260.072 439.194L243.765 435.852L269.829 364.009L278.749 339.505C278.749 339.505 284.407 319.857 286.963 312.254L288.506 302.052L325.023 306.09C325.023 306.09 335.223 321.052 332.124 345.44L333.525 437.105L317.218 437.94L303.559 345.492L279.586 396.172C279.586 396.172 272.029 417.798 266.623 422.486L260.072 439.194Z" fill="#2F2E41"/>
<path d="M310.379 309.492C310.666 309.485 310.954 309.501 311.238 309.539L328.274 290.26L326.293 284.335L334.854 280.178L339.383 290.327C339.748 291.147 339.838 292.064 339.638 292.939C339.438 293.814 338.96 294.601 338.274 295.181L315.929 314.094C316.099 315.187 315.933 316.305 315.452 317.3C314.97 318.295 314.197 319.121 313.235 319.666C312.273 320.212 311.167 320.452 310.065 320.354C308.962 320.257 307.916 319.827 307.065 319.121C306.213 318.415 305.597 317.466 305.299 316.402C305 315.338 305.033 314.208 305.392 313.163C305.752 312.117 306.422 311.206 307.313 310.551C308.204 309.895 309.273 309.526 310.379 309.492Z" fill="#FFB7B7"/>
<path d="M326.914 292.136L319.808 275.438L322.58 263.807L325.566 260.038C325.785 259.944 326.021 259.897 326.258 259.899C326.496 259.901 326.731 259.953 326.948 260.05C328.05 260.493 328.987 261.85 329.736 264.084L336.396 283.035L326.914 292.136Z" fill="#2F2E41"/>
<path d="M290.044 242.714V230.125C290.044 225.651 291.823 221.361 294.99 218.197C298.157 215.033 302.453 213.256 306.931 213.256C311.41 213.256 315.706 215.033 318.873 218.197C322.04 221.361 323.819 225.651 323.819 230.125V242.714C323.818 243.315 323.579 243.891 323.154 244.316C322.728 244.741 322.152 244.98 321.55 244.98H292.312C291.711 244.98 291.134 244.741 290.709 244.316C290.284 243.891 290.045 243.315 290.044 242.714Z" fill="#2F2E41"/>
<path d="M303.461 244.687C310.299 244.687 315.842 239.15 315.842 232.319C315.842 225.489 310.299 219.951 303.461 219.951C296.623 219.951 291.08 225.489 291.08 232.319C291.08 239.15 296.623 244.687 303.461 244.687Z" fill="#FFB7B7"/>
<path d="M286.049 231.132C286.053 227.595 287.461 224.203 289.966 221.701C292.47 219.199 295.866 217.792 299.407 217.788H301.928C305.47 217.792 308.865 219.199 311.37 221.701C313.874 224.203 315.283 227.595 315.287 231.132V231.384H309.96L308.143 226.302L307.78 231.384H305.027L304.11 228.82L303.927 231.384H286.049L286.049 231.132Z" fill="#2F2E41"/>
<path d="M302.243 246.396C301.993 246.058 301.843 245.656 301.812 245.237C301.78 244.817 301.868 244.398 302.065 244.026C304.736 238.951 308.476 229.574 303.512 223.791L303.155 223.375H317.566V244.988L304.475 247.295C304.342 247.319 304.208 247.33 304.073 247.331C303.716 247.331 303.364 247.246 303.046 247.083C302.727 246.921 302.452 246.685 302.243 246.396Z" fill="#2F2E41"/>
<path d="M134.135 437.99L141.783 440.72L155.964 412.553L144.677 408.524L134.135 437.99Z" fill="#9F616A"/>
<path d="M129.535 444.699L133.077 434.799L148.137 440.176C150.681 441.087 152.759 442.969 153.915 445.409C155.071 447.849 155.212 450.647 154.305 453.19L154.194 453.502L129.535 444.699Z" fill="#2F2E41"/>
<path d="M183.865 445.546L191.986 445.545L195.85 414.254L183.863 414.255L183.865 445.546Z" fill="#9F616A"/>
<path d="M181.793 442.897L197.786 442.896H197.787C199.126 442.896 200.451 443.16 201.688 443.671C202.924 444.183 204.048 444.933 204.994 445.878C205.941 446.824 206.691 447.946 207.204 449.181C207.716 450.417 207.98 451.741 207.98 453.078V453.409L181.793 453.41L181.793 442.897Z" fill="#2F2E41"/>
<path d="M165.356 245.636L168.888 238.664C168.888 238.664 182.046 241.957 183.242 249.575L165.356 245.636Z" fill="#F1F1F1"/>
<path d="M150.783 325.349L160.388 378.89L134.884 423.944L150.12 429.899L175.955 386.226L179.267 374.315L181.254 436.516L194.995 436.1L201.295 378.019L191.19 324.025L150.783 325.349Z" fill="#2F2E41"/>
<path d="M169.016 338.006C154.905 338.006 145.946 335.31 145.746 335.267L145.421 335.198L152.77 301.159L153.101 269.761C153.101 256.456 161.868 246.647 163.084 245.741C163.289 244.934 163.668 244.18 164.194 243.534C164.721 242.888 165.382 242.364 166.132 242C169.056 240.674 172.629 242.265 172.78 242.333L183.505 246.35L183.555 246.499C183.684 246.879 197.811 293.205 197.811 293.205C197.811 293.205 196.956 333.682 196.658 335.008C196.658 335.008 176.856 338.006 169.016 338.006Z" fill="#3F3D56"/>
<path d="M179.858 236.469C187.864 236.469 194.354 229.986 194.354 221.989C194.354 213.992 187.864 207.509 179.858 207.509C171.852 207.509 165.362 213.992 165.362 221.989C165.362 229.986 171.852 236.469 179.858 236.469Z" fill="#9F616A"/>
<path opacity="0.2" d="M163.696 272.329L189.056 307.675L192.801 291.169L163.696 272.329Z" fill="black"/>
<path d="M243.205 296.379C242.492 296.942 241.664 297.343 240.779 297.552C239.894 297.761 238.973 297.774 238.083 297.59C237.192 297.405 236.353 297.028 235.625 296.485C234.896 295.941 234.295 295.245 233.865 294.444L212.037 297.935L216.766 287.477L236.769 285.766C238.163 285.133 239.741 285.033 241.204 285.485C242.667 285.936 243.913 286.909 244.706 288.217C245.499 289.525 245.785 291.078 245.508 292.583C245.231 294.087 244.412 295.438 243.205 296.379Z" fill="#9F616A"/>
<path d="M217.89 286.882L225.733 286.113L227.906 297.043L218.037 297.217L217.89 286.882Z" fill="#F1F1F1"/>
<path d="M224.319 300.851L185.907 297.434L166.511 266.621L166.451 266.348C165.901 263.831 166.286 261.2 167.535 258.946C168.785 256.692 170.813 254.969 173.24 254.099C175.668 253.23 178.33 253.272 180.729 254.219C183.127 255.166 185.099 256.953 186.276 259.245L197.662 281.431L220.64 284.9L224.319 300.851Z" fill="#3F3D56"/>
<path d="M167.511 234.561L179.542 234.992C180.276 235.019 182.266 227.112 182.527 225.472C182.733 224.404 183.321 223.448 184.181 222.781C185.041 222.115 186.115 221.784 187.201 221.851C188.102 221.936 190.373 220.255 192.717 218.265C197.166 214.486 196.934 207.389 192.047 204.197C191.913 204.109 191.782 204.03 191.654 203.958C188.57 202.234 184.963 201.655 181.43 201.611C178.227 201.571 174.934 201.973 172.112 203.488C167.053 206.202 164.361 212.135 164.125 217.867C163.888 223.598 165.728 229.203 167.815 234.547" fill="#2F2E41"/>
<path d="M469.119 453.977H0.630027C0.462933 453.977 0.302683 453.911 0.18453 453.793C0.0663772 453.675 0 453.515 0 453.348C0 453.181 0.0663772 453.021 0.18453 452.903C0.302683 452.785 0.462933 452.719 0.630027 452.719H469.37C469.537 452.719 469.697 452.785 469.815 452.903C469.934 453.021 470 453.181 470 453.348C470 453.696 469.467 453.977 469.119 453.977Z" fill="#CBCBCB"/>
</g>
<defs>
<clipPath id="clip0_80_617">
<rect width="470" height="453.977" fill="white"/>
</clipPath>
</defs>
</svg>
